<!DOCTYPE svg PUBLIC "-//W3C//DTD SVG 1.1//EN" "http://www.w3.org/Graphics/SVG/1.1/DTD/svg11.dtd"><svg xmlns="http://www.w3.org/2000/svg" xmlns:xlink="http://www.w3.org/1999/xlink" xml:space="preserve" fill-rule="evenodd" stroke-linejoin="round" stroke-miterlimit="2" clip-rule="evenodd" viewBox="0 0 1000 1000" width="1000" height="1000"><defs><path id="a" fill="#018002" d="M892.615,1113.33C914.579,1097.37 960.005,1129.43 960.005,1129.43C954.722,1178.69 990.835,1205.13 1031.45,1243.05C1032.7,1244.23 1033.97,1245.41 1035.23,1246.61C1074.02,1283.32 1088.15,1308.53 1089.02,1326.65C1089.42,1335.07 1086.97,1341.96 1082.79,1347.76C1081.17,1350.01 1079.29,1352.09 1077.22,1354.04C1075.33,1355.81 1073.29,1357.47 1071.13,1359.04C1068.98,1360.6 1066.77,1362.03 1064.5,1363.28C1062.01,1364.65 1059.44,1365.79 1056.81,1366.63C1050,1368.82 1042.69,1369.03 1034.81,1366.04C1017.84,1359.62 998.233,1338.38 975.304,1290.15C974.556,1288.58 973.818,1287.01 973.09,1285.45C949.572,1235.11 935.591,1192.59 887.105,1182.39C887.105,1182.39 870.651,1129.28 892.615,1113.33Z"/><path id="b" fill="none" stroke="#000" stroke-linecap="round" stroke-miterlimit="1.5" stroke-width="5.37" d="M1325.4,2236.77C1325.4,2236.77 1308.14,2287.51 1281.97,2287.51L1281.96,2287.51C1255.79,2287.51 1238.53,2236.77 1238.53,2236.77"/><path id="c" fill="none" stroke="#000" stroke-linecap="square" stroke-miterlimit="1.5" stroke-width="5.37" d="M1281.96,1094.38L1281.96,1304.1"/><path id="d" d="M1250.07,1266.98C1246.3,1234.1 1239.42,1198.9 1229.51,1166.37C1231.45,1166.27 1233.37,1166.17 1235.24,1166.08C1245.03,1198.52 1251.83,1233.5 1255.59,1266.22C1253.78,1266.46 1251.94,1266.71 1250.07,1266.98ZM1220.28,1272C1215.49,1240.58 1208.5,1208.49 1193.84,1169.03C1195.76,1168.83 1197.67,1168.64 1199.57,1168.46C1214.01,1207.63 1220.97,1239.62 1225.76,1270.96C1223.94,1271.29 1222.12,1271.64 1220.28,1272ZM1191.19,1278.58C1183.74,1237.02 1173.21,1206.7 1157.94,1174.33C1159.84,1173.96 1161.72,1173.61 1163.6,1173.27C1178.69,1205.48 1189.16,1235.86 1196.6,1277.22C1194.8,1277.66 1192.99,1278.11 1191.19,1278.58ZM1163.34,1286.79C1154.26,1245.73 1140.19,1212.54 1123.54,1183.19C1125.35,1182.6 1127.16,1182.04 1128.97,1181.49C1145.55,1210.88 1159.55,1244.11 1168.66,1285.05C1166.88,1285.61 1165.11,1286.19 1163.34,1286.79ZM1136.94,1296.93C1128.69,1259.35 1110.93,1224.79 1090.17,1196.9C1091.85,1196.04 1093.55,1195.21 1095.25,1194.4C1116,1222.48 1133.72,1257.09 1142.15,1294.7C1140.4,1295.43 1138.66,1296.17 1136.94,1296.93ZM1112.68,1309.34C1101.84,1272.07 1083.74,1238.53 1060.39,1215.51C1061.89,1214.37 1063.4,1213.25 1064.93,1212.16C1088.32,1235.5 1106.58,1269.09 1117.65,1306.48C1115.97,1307.41 1114.31,1308.37 1112.68,1309.34Z"/></defs><circle cx="1001.96" cy="1749.23" r="795.405" fill="#f4c00e" stroke="#000" stroke-width="11.05" transform="translate(-125.45 -591.774) scale(.62404)"/><circle cx="1001.96" cy="1749.23" r="795.405" fill="#2274bb" stroke="#000" stroke-width="12.14" transform="translate(-69.177 -493.533) scale(.56787)"/><use xlink:href="#a" transform="translate(-348.613 -591.459) scale(.66181)"/><use xlink:href="#a" transform="rotate(-72 267.076 1035.438) scale(.66181)"/><use xlink:href="#a" transform="rotate(-144 578.02 852.164) scale(.66181)"/><use xlink:href="#a" transform="rotate(144.001 770.202 738.894) scale(.66181)"/><use xlink:href="#a" transform="rotate(72 1081.144 555.62) scale(.66181)"/><path fill="#fff" stroke="#000" stroke-linecap="round" stroke-miterlimit="1.5" stroke-width="5.37" d="M1281.96,1994.71C1310.3,1994.72 1334.76,2011.24 1317.68,2102.75C1306.96,2160.16 1291.03,2204.01 1330.1,2241.62C1388.03,2297.38 1516.31,2193.45 1562.5,2164.12C1608.7,2134.77 1646.26,2150.32 1646.26,2150.32C1646.26,2150.32 1643.08,2109.79 1685.27,2074.92C1727.44,2040.06 1865.93,1950.17 1830.79,1877.84C1807.09,1829.06 1760.47,1830.66 1702.56,1823.12C1610.25,1811.08 1602.1,1782.71 1610.85,1755.76L1610.84,1755.77C1619.6,1728.82 1642.87,1710.66 1724.63,1755.19C1775.91,1783.12 1812.69,1811.82 1860.53,1786.29C1931.47,1748.42 1872.27,1594.3 1858.65,1541.3C1845.01,1488.3 1871.41,1457.38 1871.41,1457.38C1871.41,1457.38 1831.88,1447.88 1811.76,1396.99C1791.63,1346.11 1748.94,1186.62 1669.29,1197.68C1615.58,1205.15 1602.69,1249.99 1577.62,1302.73C1537.65,1386.8 1508.15,1385.79 1485.22,1369.14L1485.24,1369.14C1462.32,1352.48 1452.24,1324.74 1519.85,1260.74C1562.26,1220.6 1600.92,1194.49 1591.42,1141.1C1577.33,1061.93 1412.46,1070.61 1357.85,1067.19C1303.23,1063.78 1281.98,1029.12 1281.98,1029.12L1281.96,1029.12C1281.96,1029.12 1260.71,1063.78 1206.09,1067.19C1151.48,1070.61 986.604,1061.93 972.516,1141.1C963.016,1194.49 1001.68,1220.6 1044.09,1260.74C1111.7,1324.74 1101.62,1352.48 1078.7,1369.14L1078.71,1369.14C1055.78,1385.79 1026.29,1386.8 986.312,1302.73C961.242,1249.99 948.357,1205.15 894.645,1197.68C814.996,1186.62 772.301,1346.11 752.173,1396.99C732.051,1447.88 692.521,1457.38 692.521,1457.38C692.521,1457.38 718.918,1488.3 705.282,1541.3C691.659,1594.3 632.454,1748.42 703.396,1786.29C751.238,1811.82 788.018,1783.12 839.299,1755.19C921.059,1710.66 944.327,1728.82 953.089,1755.77L953.086,1755.76C961.837,1782.71 953.686,1811.08 861.37,1823.12C803.466,1830.66 756.839,1829.06 733.142,1877.84C698.005,1950.17 836.495,2040.06 878.665,2074.92C920.849,2109.79 917.668,2150.32 917.668,2150.32C917.668,2150.32 955.233,2134.77 1001.43,2164.12C1047.62,2193.45 1175.9,2297.38 1233.84,2241.62C1272.9,2204.01 1256.97,2160.16 1246.25,2102.75C1229.17,2011.24 1253.63,1994.72 1281.97,1994.71" transform="translate(-380.203 -631.88) scale(.68645)"/><use xlink:href="#b" stroke-linecap="round" stroke-miterlimit="1.5" stroke-width="5.37" transform="rotate(144 792.559 754.181) scale(.68645)"/><use xlink:href="#c" stroke-linecap="square" stroke-miterlimit="1.5" stroke-width="5.37" transform="translate(-380.203 -631.88) scale(.68645)"/><use xlink:href="#d" transform="translate(-348.613 -591.46) scale(.66181)"/><path fill="none" stroke="#000" stroke-linecap="round" stroke-miterlimit="1.5" stroke-width="5.37" d="M1325.39,2236.76C1325.39,2236.76 1308.13,2287.5 1281.96,2287.5L1281.96,2287.51C1255.79,2287.51 1238.53,2236.77 1238.53,2236.77" transform="scale(.68645 -.68645) rotate(-36 -2653.24 1312.549)"/><use xlink:href="#c" stroke-linecap="square" stroke-miterlimit="1.5" stroke-width="5.37" transform="matrix(-.68645 0 0 .68645 1379.82 -631.88)"/><use xlink:href="#d" transform="matrix(-.66181 0 0 .66181 1348.231 -591.46)"/><use xlink:href="#c" stroke-linecap="square" stroke-miterlimit="1.5" stroke-width="5.37" transform="scale(-.68645 .68645) rotate(72 910.41 -194.653)"/><use xlink:href="#d" transform="scale(-.66181 .66181) rotate(72 878.409 -199.593)"/><path fill="none" stroke="#000" stroke-linecap="round" stroke-miterlimit="1.5" stroke-width="5.37" d="M1325.39,2236.77C1325.39,2236.77 1308.13,2287.51 1281.96,2287.51C1255.79,2287.51 1238.53,2236.77 1238.53,2236.77" transform="scale(-.68645 .68645) rotate(-72 -356.548 2571.962)"/><use xlink:href="#c" stroke-linecap="square" stroke-miterlimit="1.5" stroke-width="5.37" transform="scale(.68645 -.68645) rotate(-36 -2653.26 1312.559)"/><use xlink:href="#d" transform="matrix(.53542 .389 .389 -.53542 -828.128 884.344)"/><use xlink:href="#b" stroke-linecap="round" stroke-miterlimit="1.5" stroke-width="5.37" transform="matrix(-.68645 0 0 .68645 1379.813 -631.882)"/><use xlink:href="#c" stroke-linecap="square" stroke-miterlimit="1.5" stroke-width="5.37" transform="scale(.68645 -.68645) rotate(36 4663.324 -392.063)"/><use xlink:href="#d" transform="scale(.66181 -.66181) rotate(36 4719.1 -363.741)"/><path fill="none" stroke="#000" stroke-linecap="round" stroke-miterlimit="1.5" stroke-width="5.37" d="M1325.39,2236.77C1325.39,2236.77 1308.13,2287.51 1281.96,2287.51C1267.31,2287.51 1255.45,2271.6 1247.85,2257.6C1241.87,2246.6 1238.53,2236.77 1238.53,2236.77" transform="scale(-.68645 .68645) rotate(72 910.413 -194.649)"/><use xlink:href="#c" stroke-linecap="square" stroke-miterlimit="1.5" stroke-width="5.37" transform="scale(-.68645 .68645) rotate(-72 -356.543 2571.956)"/><use xlink:href="#d" transform="scale(-.66181 .66181) rotate(-72 -351.653 2604.326)"/><use xlink:href="#c" stroke-linecap="square" stroke-miterlimit="1.5" stroke-width="5.37" transform="rotate(-72 255.056 1077.601) scale(.68645)"/><use xlink:href="#d" transform="rotate(-72 267.073 1035.652) scale(.66181)"/><use xlink:href="#c" stroke-linecap="square" stroke-miterlimit="1.5" stroke-width="5.37" transform="rotate(-144 587.249 877.718) scale(.68645)"/><use xlink:href="#d" transform="rotate(-144.001 578.018 852.379) scale(.66181)"/><use xlink:href="#c" stroke-linecap="square" stroke-miterlimit="1.5" stroke-width="5.37" transform="rotate(144 792.558 754.185) scale(.68645)"/><use xlink:href="#d" transform="rotate(144.001 770.197 739.101) scale(.66181)"/><use xlink:href="#c" stroke-linecap="square" stroke-miterlimit="1.5" stroke-width="5.37" transform="rotate(72 1124.754 554.303) scale(.68645)"/><use xlink:href="#d" transform="rotate(72 1081.144 555.83) scale(.66181)"/><path fill="#d92b3a" stroke="#000" stroke-linejoin="miter" stroke-miterlimit="4" stroke-width="5.08" d="M1280.95,1965.95C1192.93,1905.74 1110.9,1804.43 1080.64,1717.48C1037.41,1601.55 1051.53,1508.42 1103.11,1444.25C1166.13,1365.85 1237.72,1386.28 1280.95,1455.84C1324.18,1386.28 1395.77,1365.85 1458.79,1444.25C1510.37,1508.42 1524.49,1601.55 1481.26,1717.48C1451,1804.43 1368.97,1905.74 1280.95,1965.95Z" transform="matrix(.8568 0 0 .70657 -597.71 -669.984)"/><path d="M1235.38,1634.31L1134.27,1634.31L1134.27,1541.13L1235.38,1541.13L1235.38,1450.42L1328.55,1450.42L1328.55,1541.13L1429.65,1541.13L1429.65,1634.31L1328.55,1634.31L1328.55,1896.52L1235.38,1896.52L1235.38,1634.31Z" transform="translate(-348.613 -582.24) scale(.66181)"/></svg>